<svg width="18" height="18" fill="none" xmlns="http://www.w3.org/2000/svg"><path d="M9 .667c2.264 0 2.546.008 3.434.05.888.041 1.492.18 2.024.387a4.07 4.07 0 011.476.961c.424.417.752.92.961 1.477.206.53.346 1.136.388 2.023.039.888.05 1.17.05 3.435 0 2.264-.009 2.547-.05 3.435-.042.888-.182 1.492-.388 2.023a4.07 4.07 0 01-.96 1.477 4.088 4.088 0 01-1.477.96c-.531.207-1.136.347-2.024.388-.888.04-1.17.05-3.435.05-2.264 0-2.546-.008-3.435-.05-.887-.041-1.491-.181-2.023-.387a4.075 4.075 0 01-1.477-.96 4.087 4.087 0 01-.96-1.478c-.207-.53-.346-1.135-.388-2.023-.04-.888-.05-1.17-.05-3.435 0-2.264.008-2.547.05-3.435.042-.888.18-1.492.388-2.023.208-.557.536-1.06.96-1.477a4.08 4.08 0 011.477-.96C4.073.897 4.676.757 5.564.716 6.453.677 6.735.667 9 .667zm0 4.166a4.167 4.167 0 100 8.334 4.167 4.167 0 000-8.334zm5.416-.208a1.041 1.041 0 10-2.083 0 1.041 1.041 0 002.083 0zM8.999 6.5a2.5 2.5 0 110 5 2.5 2.5 0 010-5z" fill="#fff"/></svg>