<svg width="18" height="18" fill="none" xmlns="http://www.w3.org/2000/svg"><path d="M10.142.745a8.336 8.336 0 00-4.474 15.897 6.464 6.464 0 01.136-1.911c.154-.7 1.08-4.553 1.08-4.553a3.116 3.116 0 01-.27-1.314c0-1.237.714-2.16 1.603-2.16A1.112 1.112 0 019.335 7.96c0 .75-.482 1.885-.733 2.95a1.287 1.287 0 001.312 1.602c1.582 0 2.642-2.025 2.642-4.417 0-1.833-1.214-3.207-3.453-3.207a3.955 3.955 0 00-4.108 3.995 2.467 2.467 0 00.54 1.642.4.4 0 01.135.462 31.25 31.25 0 01-.173.653.295.295 0 01-.425.212c-1.154-.462-1.697-1.731-1.697-3.18 0-2.373 1.987-5.213 5.962-5.213 3.163 0 5.266 2.314 5.266 4.79 0 3.257-1.814 5.706-4.495 5.706a2.384 2.384 0 01-2.045-1.038s-.481 1.93-.576 2.295a6.688 6.688 0 01-.85 1.776 8.05 8.05 0 002.372.346 8.322 8.322 0 008.33-8.336A8.334 8.334 0 0010.143.746l-.001-.001z" fill="#fff"/></svg>