<svg width="18" height="14" fill="none" xmlns="http://www.w3.org/2000/svg"><path d="M17.468 1.713a6.987 6.987 0 01-2.001.549A3.497 3.497 0 0017 .333a6.965 6.965 0 01-2.213.846 3.485 3.485 0 00-5.939 3.178A9.895 9.895 0 011.665.716a3.485 3.485 0 001.078 4.653 3.473 3.473 0 01-1.578-.436v.044A3.487 3.487 0 003.96 8.394c-.514.14-1.052.16-1.575.06a3.487 3.487 0 003.256 2.42 6.995 6.995 0 01-5.16 1.444 9.858 9.858 0 005.342 1.567c6.41 0 9.917-5.31 9.917-9.917 0-.15-.004-.301-.011-.45a7.08 7.08 0 001.74-1.804h-.002z" fill="#fff"/></svg>